<?xml version="1.0"?>
<svg xmlns="http://www.w3.org/2000/svg" xmlns:xlink="http://www.w3.org/1999/xlink" xmlns:svgjs="http://svgjs.com/svgjs" version="1.1" width="512" height="512" x="0" y="0" viewBox="0 0 64 64" style="enable-background:new 0 0 512 512" xml:space="preserve"><g><g xmlns="http://www.w3.org/2000/svg" id="setting"><path d="m15 18h-6a1 1 0 0 0 -1 1v6a1 1 0 0 0 1 1h6a1 1 0 0 0 1-1v-6a1 1 0 0 0 -1-1zm-1 6h-4v-4h4z" fill="#807777" data-original="#000000" style=""/><path d="m22 26a4 4 0 1 0 -4-4 4 4 0 0 0 4 4zm0-6a2 2 0 1 1 -2 2 2 2 0 0 1 2-2z" fill="#807777" data-original="#000000" style=""/><path d="m32.031 25.969a4 4 0 1 0 -4-4 4 4 0 0 0 4 4zm0-6a2 2 0 1 1 -2 2 2 2 0 0 1 2-2z" fill="#807777" data-original="#000000" style=""/><path d="m42.062 25.938a4 4 0 1 0 -4-4 4 4 0 0 0 4 4zm0-6a2 2 0 1 1 -2 2 2 2 0 0 1 2-2z" fill="#807777" data-original="#000000" style=""/><path d="m22 36a4 4 0 1 0 -4-4 4 4 0 0 0 4 4zm0-6a2 2 0 1 1 -2 2 2 2 0 0 1 2-2z" fill="#807777" data-original="#000000" style=""/><path d="m15 28h-6a1 1 0 0 0 -1 1v6a1 1 0 0 0 1 1h6a1 1 0 0 0 1-1v-6a1 1 0 0 0 -1-1zm-1 6h-4v-4h4z" fill="#807777" data-original="#000000" style=""/><path d="m22 38a4 4 0 1 0 4 4 4 4 0 0 0 -4-4zm0 6a2 2 0 1 1 2-2 2 2 0 0 1 -2 2z" fill="#807777" data-original="#000000" style=""/><path d="m15 38h-6a1 1 0 0 0 -1 1v6a1 1 0 0 0 1 1h6a1 1 0 0 0 1-1v-6a1 1 0 0 0 -1-1zm-1 6h-4v-4h4z" fill="#807777" data-original="#000000" style=""/><path d="m61.16 40.01-3.95-.66a13.338 13.338 0 0 0 -.59-1.4l2.34-3.27a1 1 0 0 0 -.11-1.29l-4.24-4.24a1 1 0 0 0 -1.29-.11l-1.32.95v-23.99a1 1 0 0 0 -1-1h-5v-2a1 1 0 0 0 -1-1h-6a1 1 0 0 0 -1 1v2h-22v-2a1 1 0 0 0 -1-1h-6a1 1 0 0 0 -1 1v2h-5a1 1 0 0 0 -1 1v43a1 1 0 0 0 1 1h28.35a.219.219 0 0 0 .03.05l-2.34 3.27a1 1 0 0 0 .11 1.29l4.24 4.24a1 1 0 0 0 1.29.11l3.27-2.34a13.338 13.338 0 0 0 1.4.59l.66 3.95a1 1 0 0 0 .99.84h6a1 1 0 0 0 .99-.84l.66-3.95a13.338 13.338 0 0 0 1.4-.59l3.27 2.34a1 1 0 0 0 1.29-.11l4.24-4.24a1 1 0 0 0 .11-1.29l-2.34-3.27a13.338 13.338 0 0 0 .59-1.4l3.95-.66a1 1 0 0 0 .84-.99v-6a1 1 0 0 0 -.84-.99zm-21.16-36.01h4v4a2 2 0 0 1 -4 0zm-30 0h4v4a2 2 0 0 1 -4 0zm-6 3h4v1a4 4 0 0 0 8 0v-1h22v1a4 4 0 0 0 8 0v-1h4v7h-46zm0 41v-32h46v15.35c-.44-.2-.89-.39-1.35-.56l-.66-3.95a1 1 0 0 0 -.99-.84h-6a1 1 0 0 0 -.99.84l-.66 3.95a13.338 13.338 0 0 0 -1.4.59l-3.27-2.34a1 1 0 0 0 -1.29.11l-4.24 4.24a1 1 0 0 0 -.11 1.29l2.34 3.27a14.228 14.228 0 0 0 -.57 1.4l-3.97.66a1 1 0 0 0 -.84.99v6a1 1 0 0 0 .84.99l.08.01zm56-1.85-3.72.62a1 1 0 0 0 -.79.7 13.233 13.233 0 0 1 -.91 2.2 1 1 0 0 0 .06 1.05l2.2 3.07-3.05 3.05-3.07-2.2a1 1 0 0 0 -1.05-.06 12.89 12.89 0 0 1 -2.2.91 1.012 1.012 0 0 0 -.7.79l-.62 3.72h-4.3l-.62-3.72a1.012 1.012 0 0 0 -.7-.79 12.89 12.89 0 0 1 -2.2-.91 1 1 0 0 0 -1.05.06l-3.07 2.2-3.05-3.05 2.2-3.07a1 1 0 0 0 .06-1.05 13.233 13.233 0 0 1 -.91-2.2 1 1 0 0 0 -.79-.7l-3.72-.62v-4.3l3.72-.62a1.051 1.051 0 0 0 .79-.68 13.742 13.742 0 0 1 .91-2.22 1 1 0 0 0 -.06-1.05l-2.2-3.07 3.05-3.05 3.07 2.2a1 1 0 0 0 1.05.06 12.89 12.89 0 0 1 2.2-.91 1.012 1.012 0 0 0 .7-.79l.62-3.72h4.3l.62 3.72a1.012 1.012 0 0 0 .7.79 12.89 12.89 0 0 1 2.2.91 1 1 0 0 0 1.05-.06l3.07-2.2 3.05 3.05-2.2 3.07a1 1 0 0 0 -.06 1.05 12.564 12.564 0 0 1 .91 2.2 1 1 0 0 0 .79.7l3.72.62z" fill="#807777" data-original="#000000" style=""/><path d="m44 35a9 9 0 1 0 9 9 9.01 9.01 0 0 0 -9-9zm0 16a7 7 0 1 1 7-7 7.008 7.008 0 0 1 -7 7z" fill="#807777" data-original="#000000" style=""/></g></g></svg>
