<?xml version="1.0"?>
<svg xmlns="http://www.w3.org/2000/svg" xmlns:xlink="http://www.w3.org/1999/xlink" xmlns:svgjs="http://svgjs.com/svgjs" version="1.1" width="512" height="512" x="0" y="0" viewBox="0 0 480 480" style="enable-background:new 0 0 512 512" xml:space="preserve" class=""><g><path xmlns="http://www.w3.org/2000/svg" d="m440 88h-69.753906c2.714844-2.078125 5.355468-4.28125 7.816406-6.742188 8.984375-8.992187 13.9375-20.945312 13.9375-33.65625 0-26.25-21.351562-47.601562-47.601562-47.601562-12.710938 0-24.664063 4.953125-33.65625 13.945312l-70.742188 70.742188-70.742188-70.742188c-8.992187-8.992187-20.945312-13.945312-33.65625-13.945312-26.25 0-47.601562 21.351562-47.601562 47.601562 0 12.710938 4.953125 24.664063 13.945312 33.65625 2.453126 2.460938 5.09375 4.664063 7.808594 6.742188h-69.753906c-22.054688 0-40 17.945312-40 40v224c0 22.054688 17.945312 40 40 40h400c22.054688 0 40-17.945312 40-40v-224c0-22.054688-17.945312-40-40-40zm0 16c13.230469 0 24 10.769531 24 24v24h-160c0-2.128906-.839844-4.160156-2.34375-5.65625l-42.34375-42.34375zm-424 104v-40h160v40zm176-40h96v40h-96zm3.3125-16 44.6875-44.6875 44.6875 44.6875zm108.6875 16h160v40h-160zm18.0625-142.742188c5.960938-5.96875 13.898438-9.257812 22.335938-9.257812 17.425781 0 31.601562 14.175781 31.601562 31.601562 0 8.4375-3.289062 16.375-9.257812 22.34375-11.636719 11.640626-27.117188 18.054688-43.589844 18.054688h-63.832032zm-208.804688 44.6875c-5.96875-5.96875-9.257812-13.90625-9.257812-22.34375 0-17.425781 14.175781-31.601562 31.601562-31.601562 8.4375 0 16.375 3.289062 22.34375 9.257812l62.742188 62.742188h-63.832031c-16.480469 0-31.960938-6.414062-43.597657-18.054688zm-73.257812 34.054688h180.679688l-42.34375 42.34375c-1.496094 1.496094-2.335938 3.527344-2.335938 5.65625h-160v-24c0-13.230469 10.769531-24 24-24zm400 272h-400c-13.230469 0-24-10.769531-24-24v-128h156.6875l-18.34375 18.34375 11.3125 11.3125 24-24c1.503906-1.496094 2.34375-3.527344 2.34375-5.65625h96c0 2.128906.839844 4.160156 2.34375 5.65625l24 24 11.3125-11.3125-18.34375-18.34375h156.6875v128c0 13.230469-10.769531 24-24 24zm0 0" fill="#807777" data-original="#000000" style="" class=""/><path xmlns="http://www.w3.org/2000/svg" d="m248 264h-200c-4.414062 0-8 3.574219-8 8v40c0 4.425781 3.585938 8 8 8h200c4.414062 0 8-3.574219 8-8v-40c0-4.425781-3.585938-8-8-8zm-8 40h-184v-24h184zm0 0" fill="#807777" data-original="#000000" style="" class=""/><path xmlns="http://www.w3.org/2000/svg" d="m421.65625 330.34375c-1.496094-1.503906-3.535156-2.34375-5.65625-2.34375h-24c-2.121094 0-4.160156.839844-5.65625 2.34375l-8.152344 8.152344-3.03125-6.070313c-1.359375-2.714843-4.128906-4.425781-7.160156-4.425781h-24v16h19.054688l5.792968 11.574219c1.152344 2.296875 3.335938 3.90625 5.871094 4.320312.425781.074219.855469.105469 1.28125.105469 2.105469 0 4.144531-.832031 5.65625-2.34375l13.65625-13.65625h17.375l13.65625 13.65625c1.496094 1.503906 3.535156 2.34375 5.65625 2.34375h8v-16h-4.6875zm0 0" fill="#807777" data-original="#000000" style="" class=""/><path xmlns="http://www.w3.org/2000/svg" d="m272 272h16v16h-16zm0 0" fill="#807777" data-original="#000000" style="" class=""/><path xmlns="http://www.w3.org/2000/svg" d="m304 272h16v16h-16zm0 0" fill="#807777" data-original="#000000" style="" class=""/><path xmlns="http://www.w3.org/2000/svg" d="m336 272h16v16h-16zm0 0" fill="#807777" data-original="#000000" style="" class=""/></g></svg>
