<svg enable-background="new 0 0 612 792" viewBox="0 0 612 792" xmlns="http://www.w3.org/2000/svg"><path d="m400.2 108.1-8.1 13.8-3 18.5-3.3 6.2-14.6 6.8v7.5l9 8.2 20.8 5.9 19.4 11.7 20.9 10.3 15 6.1 8.1-.9 5.6-5.7.9-12.4-3.3-15-3.5-13.5 7.2-7.4 13.5-9.3 3.3-4.4-9.6-8s-12.1-2.8-14-2.8-18.7 2.6-18.7 2.6-29.8-33.8-45.6-18.2z" fill="#ecf0f2"/><path d="m441.1 148.2v13.4h24.7v-6l5.5-7.4z" fill="#e2e2e2"/><path d="m371.1 153.4h19.7l5.8 5.2v16.4l-16.5-5.9-9-8.2z" fill="#e2e2e2"/><path d="m428.5 111.1h-16.5v10h27.5z" fill="#e2e2e2"/><path d="m410.8 134v-12.9h-18.8l-2.4 13.4z" fill="#e2e2e2"/><path d="m397.3 164.2s20.4 17.9 37.6 5.5 30.9-5.5 30.9-5.5l4 13.3 1.3 14.3-6.7 10.4-8.1.9v-12.3h-26l-18.3-9.6-15.4-6.3.7-8.3z" fill="#f5f7f7"/><path d="m430.3 190.9h26v12.2z" fill="#e2e2e2"/><path d="m460.3 204.4c-10.1 0-25.5-7.2-45.7-18.4-15.3-8.5-24.8-11.9-31-14.2-8.4-3.1-11.6-4.2-14.1-12.7-.8-2.9-.7-5.2.3-7.1 1.7-3 5.3-4 8.7-4.9 5-1.3 8.1-2.4 8.3-6.7.5-12.5 4.2-21.7 4.6-22.5 3.3-8.8 8.3-13.9 15-15.2 15.6-2.9 34.7 16.8 39.2 21.6 4.7-1.2 20.7-4.9 30.8-.9.7.3 1.4.6 2.1.8 6.1 2.3 11.3 4.3 11.7 8.7.4 4-3.7 8.2-13.5 14.2-12.4 7.6-12.1 8.4-9.1 16 1.7 4.5 4.1 10.7 5.3 20.7 1.1 9.4-.5 15.5-5 18.5-2 1.4-4.6 2.1-7.6 2.1zm-50.5-97.6c-.8 0-1.7.1-2.5.2-5.1.9-9.1 5.1-11.8 12.4v.1c0 .1-3.8 9-4.3 21-.3 7.7-6.8 9.4-11.5 10.7-2.7.7-5.3 1.4-6.1 2.8-.5.8-.4 2.1.1 3.7 1.9 6.4 3.3 6.9 11.4 9.9 6.4 2.3 16 5.9 31.6 14.5 19.9 11 41.3 21.6 48.9 16.5 3-2 4-6.8 3.1-14.4-1.1-9.5-3.4-15.4-5.1-19.6-3.7-9.7-3.2-12.6 10.9-21.2 10.9-6.7 11.5-9.4 11.4-10.1-.2-1.7-5-3.5-8.9-5-.7-.3-1.4-.5-2.2-.8-10.3-4-29.2 1.3-29.4 1.4l-1.3.4-.9-1c-.1-.3-18.7-21.5-33.4-21.5z" fill="#c4e0ec"/><path d="m457.8 203.5c-.7 0-1.3-.6-1.3-1.3v-10h-28.1c-.7 0-1.3-.6-1.3-1.3s.6-1.3 1.3-1.3h30.8v12.7c-.1.6-.7 1.2-1.4 1.2z" fill="#c4e0ec"/><path d="m412.1 135.8h-22.6c-.7 0-1.3-.6-1.3-1.3s.6-1.3 1.3-1.3h19.9v-9.9h-17.4c-.7 0-1.3-.6-1.3-1.3s.6-1.3 1.3-1.3h20.1z" fill="#c4e0ec"/><path d="m437.9 123.3h-28.5v-14.3h17.2c.7 0 1.3.6 1.3 1.3s-.6 1.3-1.3 1.3h-14.6v9h25.8c.7 0 1.3.6 1.3 1.3s-.4 1.4-1.2 1.4z" fill="#c4e0ec"/><path d="m396.4 176.3c-.7 0-1.3-.6-1.3-1.3v-15.9l-4.7-4.4h-19.3c-.7 0-1.3-.6-1.3-1.3s.6-1.3 1.3-1.3h20.3l6.3 5.9v17c.1.7-.5 1.3-1.3 1.3z" fill="#c4e0ec"/><path d="m464.5 162.2h-24.6v-15.4h31.3c.7 0 1.3.6 1.3 1.3s-.6 1.3-1.3 1.3h-28.7v10h21.9c.7 0 1.3.6 1.3 1.3s-.4 1.5-1.2 1.5z" fill="#c4e0ec"/><path d="m167.9 374.5v-51.4h46.5l4.5-19.1v-16.1l-2.2-13.2-10-8.8-13.5-3.6-10.2-.9 1.4-11.1-7.2-17.9-10.7-14-8.6-5.6h-13l-14.7 4.4-12.7 6.5-10.3-1.8-5.9-2.3-12.3 6.5-5.8 5.7-2.9 8.7 6.6 9.4 15.1 9.5 8.2 11.6 1.4 13.7-3 11.2-1.7 8.4 1.4 8.3 6.1 7.2 12.1 11.2 4.7 9.5-1.3 10.6-4.5 8.6.7 7.6 5.1 7.4 7.9 6.6h9.5z" fill="#ecf0f2"/><path d="m143.9 363.7h23.3l.7 10.8-14.1 5-9.9 1.8-2.2-3.4v-14.2z" fill="#e2e2e2"/><path d="m136.9 284.3v-17.6h-28.2l2.7 8.8.2 9.2z" fill="#e2e2e2"/><path d="m181.1 322.1v-11.1l7.4-5.7h30.4l-4 15.9z" fill="#e2e2e2"/><path d="m144.9 212.8v10.2h27.6l-9.9-7.1s-5.8-3.5-7.9-3.3-9.8.2-9.8.2z" fill="#e2e2e2"/><path d="m130.7 250.3-5.3 11.7 11.5 4.7h28.7v-16.4z" fill="#e2e2e2"/><path d="m131.7 285.5s-5.9 12.5 7.4 20.3 27.5-2.3 28.8 17.3v40.6h-26.2v14.2l-10.5-3.2-5.1-7.4-.7-7.6 4.5-8.6 1.3-10.7-4.7-9.5-9.3-8.9-8.9-9.5-1.4-8.3 4.7-19.6z" fill="#f5f7f7"/><path d="m125.6 220.3s-9.4 16.1 6.1 18.2 22.8 11.4 22.8 11.4h11.2v16.7s17.7-5.9 24.8 17.9c7.1 23.9 28.9 6.3 28.9 6.3l-1.2-12.3-8.5-10.9-11.6-3.9-11.5-1.4-3.6-1 .3-13.8-6.1-15.2-4.7-9.4h-27.6v-10.2z" fill="#f5f7f7"/><path d="m167.9 357.5h-30.9c-.7 0-1.3-.6-1.3-1.3s.6-1.3 1.3-1.3h30.8c.7 0 1.3.6 1.3 1.3s-.5 1.3-1.2 1.3z" fill="#c4e0ec"/><path d="m141.1 381.4c-.7 0-1.3-.6-1.3-1.3v-17.7h28.1c.7 0 1.3.6 1.3 1.3s-.6 1.3-1.3 1.3h-25.4v15c0 .8-.6 1.4-1.4 1.4z" fill="#c4e0ec"/><path d="m181.1 323.6c-.8 0-1.5-.7-1.5-1.5v-12.2l6.6-5.6h31.9c.8 0 1.5.7 1.5 1.5s-.7 1.5-1.5 1.5h-30.8l-4.7 4v10.8c0 .8-.7 1.5-1.5 1.5z" fill="#c4e0ec"/><path d="m146.5 382.7c-6.7 0-13.7-2.1-18.9-8.9-7.7-10-4.3-16.1-1.3-21.4 2.6-4.7 4.9-8.7 1.1-16.1-3-5.8-7.4-9.3-11.5-12.6-7.8-6.3-15.3-12.2-8.5-30.9 3.2-8.9 3.2-16.9-.3-23.6-4.3-8.5-12.7-12.4-14.7-12.9l-.2-.1-.2-.1c-.6-.3-13.7-7.5-14-17.4-.2-5.3 3.2-10.1 10-14.4 11.7-7.3 17.1-5.4 21.9-3.7 4.5 1.6 8.4 3 19.2-5l.2-.2c.6-.3 15-8.1 29.6-3.4 8.7 2.8 15.5 9.4 20.4 19.5 7.2 15.1 5.9 22.5 5.2 26.6-.1.5-.2 1.2-.2 1.5 1.1.5 5.1 1 10.6 1.6 1.5.2 3.2.4 5 .6 7.3.9 12.9 4.2 16.6 9.9 11 17.1.6 49.7.2 51.1-.4 1.1-1.6 1.8-2.7 1.4s-1.8-1.6-1.4-2.7c.1-.3 10.2-32 .3-47.4-3-4.6-7.4-7.2-13.4-7.9-1.9-.2-3.5-.4-5-.6-9.6-1.1-12.2-1.4-13.7-3.4-1.1-1.4-.8-3.1-.5-4.8.6-3.5 1.8-10.1-4.8-23.9-4.3-9-10.3-14.8-17.8-17.2-12.2-3.9-24.8 2.3-26.1 3-12.6 9.2-17.9 7.3-23.1 5.5-4.2-1.5-8.2-2.9-18.1 3.3-5.4 3.4-8.1 7-8 10.6.2 6.1 8.2 11.8 11.5 13.6 3.4 1.1 12.3 5.5 17.2 15.1 4 7.8 4.2 16.9.5 27.1-5.7 15.8-.6 19.9 7.1 26.1 4.3 3.4 9.2 7.4 12.7 14 5 9.5 1.6 15.5-1.1 20.3-2.9 5.2-5 8.9.9 16.6 11.8 15.3 35.5 1.6 35.8 1.5 1-.6 2.4-.3 3 .8.6 1 .3 2.4-.8 3-.4-.3-11.2 5.9-22.7 5.9z" fill="#c4e0ec"/><path d="m138.3 286h-26.8c-.7 0-1.3-.6-1.3-1.3s.6-1.3 1.3-1.3h24.1v-14.4h-27c-.7 0-1.3-.6-1.3-1.3s.6-1.3 1.3-1.3h29.7z" fill="#c4e0ec"/><path d="m167 268.9h-27l-16.3-6.1 5.7-13.7h37.6zm-26.5-2.7h23.8v-14.4h-33.2l-4 9.5z" fill="#c4e0ec"/><path d="m172.4 223.9h-28.8v-11c0-.7.6-1.3 1.3-1.3s1.3.6 1.3 1.3v8.4h26.2c.7 0 1.3.6 1.3 1.3s-.6 1.3-1.3 1.3z" fill="#c4e0ec"/><path d="m194.3 277.5h-44.7c-.7 0-1.3-.6-1.3-1.3s.6-1.3 1.3-1.3h44.7c.7 0 1.3.6 1.3 1.3s-.5 1.3-1.3 1.3z" fill="#c4e0ec"/><path d="m108.7 233.1h-25.5c-.7 0-1.3-.6-1.3-1.3s.6-1.3 1.3-1.3h25.5c.7 0 1.3.6 1.3 1.3s-.6 1.3-1.3 1.3z" fill="#c4e0ec"/><path d="m119.6 233.1h-6.3c-.7 0-1.3-.6-1.3-1.3s.6-1.3 1.3-1.3h6.3c.7 0 1.3.6 1.3 1.3s-.6 1.3-1.3 1.3z" fill="#c4e0ec"/><path d="m134.9 521.9 10-8.9-.6-9.2-3.5-6.1-8.6-4.3-7.5 1.2-8.2 8.7 1.6 11.2 8.4 7.4v102.8l-5.5 1.3-9.2 3.4v4.3l2.1 4.9h34l1.1-6.7-5.5-5.9-8.6-1.3z" fill="#ecf0f2"/><path d="m126.5 521.9h8.4v14.9h-8.4z" fill="#e2e2e2"/><path d="m119.2 499s4.4 20.9 20.4 18.7l-4.7 4.2h-8.4l-8.5-7.4-1.5-9.2z" fill="#e2e2e2"/><path d="m134.9 624.7s-8.2 8.1 0 13.9h-21s-8-15.7 21-13.9z" fill="#e2e2e2"/><path d="m75.4 521.9 9.9-8.9-.5-9.2-3.6-6.1-8.6-4.3-7.5 1.2-8.2 8.7 1.6 11.2 8.5 7.4v102.8l-5.6 1.3-9.2 3.4.1 4.3 2.1 4.9h33.9l1.1-6.7-5.4-5.9-8.6-1.3z" fill="#ecf0f2"/><path d="m67 521.9h8.4v14.9h-8.4z" fill="#e2e2e2"/><path d="m59.7 499s4.4 20.9 20.4 18.7l-4.7 4.2h-8.4l-8.5-7.4-1.5-9.2z" fill="#e2e2e2"/><path d="m75.4 624.7s-8.2 8.1 0 13.9h-21s-8-15.7 21-13.9z" fill="#e2e2e2"/><path d="m126.5 626.8c-1.2 0-2.2-1-2.2-2.2v-102.7c0-1.2 1-2.2 2.2-2.2s2.2 1 2.2 2.2v102.7c0 1.3-1 2.2-2.2 2.2z" fill="#c4e0ec"/><path d="m134.9 626.8c-1.2 0-2.2-1-2.2-2.2v-102.7c0-1.2 1-2.2 2.2-2.2s2.2 1 2.2 2.2v102.7c0 1.3-1 2.2-2.2 2.2z" fill="#c4e0ec"/><path d="m130.6 524.1c-9.1 0-16.5-7.4-16.5-16.5s7.4-16.5 16.5-16.5 16.5 7.4 16.5 16.5-7.4 16.5-16.5 16.5zm0-28.6c-6.7 0-12.1 5.4-12.1 12.1s5.4 12.1 12.1 12.1 12.1-5.4 12.1-12.1-5.4-12.1-12.1-12.1z" fill="#c4e0ec"/><path d="m112.9 638.7c-.7 0-1.3-.3-1.7-.9-1-1.4-2.3-4.6-.8-7.7 2.2-4.2 8.6-6.3 19.8-6.3 1.2 0 2.2 1 2.2 2.2s-1 2.2-2.2 2.2c-12.6 0-15.3 2.7-15.9 3.9-.8 1.4.4 3.2.4 3.2.7 1 .4 2.3-.5 3-.5.3-.9.4-1.3.4z" fill="#c4e0ec"/><path d="m147.9 638.7c-.4 0-.9-.1-1.3-.4-1-.7-1.2-2-.5-3 0-.1 1.2-1.8.4-3.2-.6-1.2-3.4-3.9-15.9-3.9-1.2 0-2.2-1-2.2-2.2s1-2.2 2.2-2.2c11.2 0 17.7 2.1 19.8 6.3 1.6 3 .2 6.3-.8 7.7-.4.6-1.1.9-1.7.9z" fill="#c4e0ec"/><path d="m134.9 539h-8.4c-1.2 0-2.2-1-2.2-2.2s1-2.2 2.2-2.2h8.4c1.2 0 2.2 1 2.2 2.2s-1 2.2-2.2 2.2z" fill="#c4e0ec"/><path d="m139.8 510.1c-.7 0-1.3-.4-1.4-1.1-1.8-6.9-8.5-8.6-8.5-8.6-.8-.2-1.3-1-1.1-1.8s1-1.3 1.8-1.1c.3.1 8.5 2.1 10.7 10.7.2.8-.3 1.6-1.1 1.8-.2.1-.3.1-.4.1z" fill="#c4e0ec"/><path d="m67.2 626.8c-1.2 0-2.2-1-2.2-2.2v-102.7c0-1.2 1-2.2 2.2-2.2s2.2 1 2.2 2.2v102.7c0 1.3-1 2.2-2.2 2.2z" fill="#c4e0ec"/><path d="m75.6 626.8c-1.2 0-2.2-1-2.2-2.2v-102.7c0-1.2 1-2.2 2.2-2.2s2.2 1 2.2 2.2v102.7c0 1.3-1 2.2-2.2 2.2z" fill="#c4e0ec"/><path d="m71.2 524.1c-9.1 0-16.5-7.4-16.5-16.5s7.4-16.5 16.5-16.5 16.5 7.4 16.5 16.5-7.4 16.5-16.5 16.5zm0-28.6c-6.7 0-12.1 5.4-12.1 12.1s5.4 12.1 12.1 12.1 12.1-5.4 12.1-12.1-5.4-12.1-12.1-12.1z" fill="#c4e0ec"/><path d="m53.5 638.7c-.7 0-1.3-.3-1.8-.9-1-1.4-2.3-4.6-.8-7.7 2.2-4.2 8.6-6.3 19.8-6.3 1.2 0 2.2 1 2.2 2.2s-1 2.2-2.2 2.2c-12.6 0-15.4 2.7-16 3.9-.7 1.4.4 3.1.4 3.1.7 1 .5 2.3-.5 3-.2.4-.6.5-1.1.5z" fill="#c4e0ec"/><path d="m88.5 638.7c-.4 0-.9-.1-1.3-.4-1-.7-1.2-2-.5-3 0-.1 1.2-1.8.4-3.2-.6-1.2-3.4-3.9-15.9-3.9-1.2 0-2.2-1-2.2-2.2s1-2.2 2.2-2.2c11.2 0 17.7 2.1 19.8 6.3 1.6 3 .2 6.3-.8 7.7-.3.6-1 .9-1.7.9z" fill="#c4e0ec"/><path d="m75.6 539h-8.4c-1.2 0-2.2-1-2.2-2.2s1-2.2 2.2-2.2h8.4c1.2 0 2.2 1 2.2 2.2s-1 2.2-2.2 2.2z" fill="#c4e0ec"/><path d="m80.4 510.1c-.7 0-1.3-.4-1.4-1.1-1.8-6.9-8.5-8.6-8.5-8.6-.8-.2-1.3-1-1.1-1.8s1-1.3 1.8-1.1c.3.1 8.5 2.1 10.7 10.7.2.8-.3 1.6-1.1 1.8-.1.1-.2.1-.4.1z" fill="#c4e0ec"/><path d="m101.5 537.5c-.2 0-.4 0-.6 0-15.6-.3-26.6-13.7-27-14.2-.8-.9-.6-2.3.3-3.1s2.3-.6 3.1.3c.2.2 10.2 12.3 23.8 12.6 8.3.2 16.3-4.1 23.9-12.7.8-.9 2.2-1 3.1-.2s1 2.2.2 3.1c-8.4 9.5-17.4 14.2-26.8 14.2z" fill="#c4e0ec"/><path d="m189.6 340.5h169.7v296.4h-169.7z" fill="#685a88"/><path d="m358.6 531.9-13.1-3.9-20.6-1.5-27.1 5.4-17.6 13.3-12.5 13.9-8.3 15.2-5.3 21.7.7 20.2 6.9 20.7h98.2z" fill="#ec7e8a"/><path d="m254.1 596s.5 12.4 20 11.3 29.2 10.6 23.7 29.9h-36.1c0 .1-14.1-28.2-7.6-41.2z" fill="#f592a2"/><path d="m324.9 526.5s35.2 101.8-27.1 110.8h64.7v-101.5s-14.6-13.5-37.6-9.3z" fill="#d87181"/><path d="m332.9 614.4s-17.4-10.6-4.8-18.4 17.1-21.2 17.1-21.2 5.3-15.2 12.3-6l-3.7 27.3-3.2 8z" fill="#f592a2"/><path d="m318.5 537.8s-8.7-5.8-7.4 4.5 11.6 11 11.6 11 21.3-13.4-4.2-15.5z" fill="#f592a2"/><path d="m240.1 340.5s-12.4 46.2 19.9 63.6 97.9 66.2 97.9 119v-182.6z" fill="#594e78"/><path d="m189.6 500.7v136.2h74.3l-10.1-18.3.3-22.6 5.3-21.7 15.3-22.6 18.2-15.9 4.9-3.9-5.2-6.2-8.1-5.6-13.5-2.2-10 1.1h-7.2l-13.7 4.1-11.1 2.5h-7.9l-10.9-3.3-7.6-7.9z" fill="#835a85"/><path d="m261 519s36.1-25.8 67.2 6.6l-30.3 6.3c-.1 0-5-19.5-36.9-12.9z" fill="#a57696"/><path d="m189.6 543.1s-10.2 28.5 13 41.6 34.7-11.6 51.2 0c0 0-1.8 34.7 7.9 52.2h-72.1z" fill="#755077"/><path d="m170.8 323.1 18.8 17.4v296.8h-18.8z" fill="#b87649"/><path d="m378 323.1-18.8 17.4v296.8h18.8z" fill="#b87649"/><path d="m170.8 323.1 18.8 17.4h169.6l18.8-17.4z" fill="#b87649"/><path d="m170.8 323.1 9.4 8.7v305.5h-9.4z" fill="#dc986b"/><path d="m170.8 323.1h207.2l-6.2 6.3h-191.6z" fill="#dc986b"/><path d="m234.7 568.8 6.6-8.4-6.6-8.3h-7.4l-5.2 6.1 1.2 7.1z" fill="#ffd56c"/><path d="m285.8 417.5 3.3-7.7-4.6-8.3h-9.8l-3.7 8 3.1 7.9 4.5 2.1z" fill="#ffd56c"/><path d="m229.5 445.3 6.1-4.8 6.4-9.1 3.1-14.9-3.5-13.5-9.9-12.7-16.6-5.2-11.1 1.2-14.3 5v51.8s22.8 12.6 39.8 2.2z" fill="#91cfa3"/><path d="m196.2 389.6s-6.4 21.4 6.4 28c12.8 6.5 32.7 10.2 33.1 22.9l-17.3 9-18-2.2-10.8-6.8.1-49.2z" fill="#7fb88d"/><path d="m196.2 389.6s42.4-1.9 46.7 38c-.1 0 7.7-55.7-46.7-38z" fill="#acd9b4"/><path d="m359.9 639.7c-1.3 0-2.3-1-2.3-2.3v-294.6h-165.7v294.5c0 1.3-1 2.3-2.3 2.3s-2.3-1-2.3-2.3v-299.2h175v299.2c-.1 1.3-1.1 2.4-2.4 2.4z" fill="#12426d"/><path d="m378.6 639.7c-1.3 0-2.3-1-2.3-2.3v-312h-203.1v311.9c0 1.3-1 2.3-2.3 2.3s-2.3-1-2.3-2.3v-316.5h212.5v316.6c-.2 1.2-1.2 2.3-2.5 2.3z" fill="#12426d"/><path d="m261.7 639.2c-.9 0-1.7-.5-2.1-1.3-5.4-10.9-8.1-22.6-8.1-34.8 0-43.5 35.4-78.9 78.9-78.9 10.5 0 20.8 2 30.4 6.1 1.2.5 1.8 1.9 1.3 3.1s-1.9 1.8-3.1 1.3c-9.1-3.8-18.7-5.7-28.6-5.7-40.9 0-74.2 33.3-74.2 74.2 0 11.5 2.6 22.5 7.6 32.8.6 1.2.1 2.6-1.1 3.1-.3.1-.7.1-1 .1z" fill="#12426d"/><path d="m212.7 452.4c-9.3 0-18-3.6-24.6-10.2-.9-.9-.9-2.4 0-3.3s2.4-.9 3.3 0c5.7 5.7 13.3 8.8 21.3 8.8 16.6 0 30.1-13.5 30.1-30.1s-13.5-30.1-30.1-30.1c-7.6 0-14.8 2.8-20.3 7.9-1 .9-2.4.8-3.3-.1-.9-1-.8-2.4.1-3.3 6.4-5.9 14.8-9.1 23.5-9.1 19.2 0 34.8 15.6 34.8 34.8 0 19.1-15.7 34.7-34.8 34.7z" fill="#12426d"/><path d="m280 421.9c-6.3 0-11.4-5.1-11.4-11.4s5.1-11.4 11.4-11.4 11.4 5.1 11.4 11.4-5.1 11.4-11.4 11.4zm0-18.1c-3.7 0-6.7 3-6.7 6.7s3 6.7 6.7 6.7 6.7-3 6.7-6.7-3-6.7-6.7-6.7z" fill="#12426d"/><path d="m231 571.9c-6.3 0-11.5-5.1-11.5-11.5s5.2-11.4 11.5-11.4 11.5 5.1 11.5 11.5-5.2 11.4-11.5 11.4zm0-18.3c-3.7 0-6.8 3-6.8 6.8s3 6.8 6.8 6.8c3.7 0 6.8-3 6.8-6.8s-3.1-6.8-6.8-6.8z" fill="#12426d"/><path d="m298.7 534.8c-.5 0-1-.3-1.3-.7-12.9-21-32.5-15.9-51.4-11-8.7 2.2-16.9 4.4-24.2 4-24-1.3-33.1-30.3-33.5-31.5-.2-.8.2-1.6 1-1.8s1.6.2 1.8 1c.1.3 8.9 28.3 30.8 29.4 6.9.4 14.9-1.7 23.4-3.9 19.1-4.9 40.7-10.5 54.7 12.3.4.7.2 1.6-.5 2-.3.2-.5.2-.8.2z" fill="#12426d"/><path d="m330.4 528c-.4 0-.8-.2-1.1-.5-28.4-32-68.1-8.1-68.5-7.8-.7.4-1.6.2-2-.5s-.2-1.6.5-2c.4-.3 42.3-25.4 72.3 8.4.5.6.5 1.5-.1 2.1-.4.2-.8.3-1.1.3z" fill="#12426d"/><path d="m180.2 623.6c-.8 0-1.5-.7-1.5-1.5v-95.6c0-.8.7-1.5 1.5-1.5s1.5.7 1.5 1.5v95.6c0 .9-.7 1.5-1.5 1.5z" fill="#12426d"/><path d="m180.2 519.4c-.8 0-1.5-.7-1.5-1.5v-13.7c0-.8.7-1.5 1.5-1.5s1.5.7 1.5 1.5v13.7c0 .8-.7 1.5-1.5 1.5z" fill="#12426d"/><path d="m267.3 372.5v-3.7l-5.6-1.5-2 5.2 4.2 2.4z" fill="#ffd56c"/><path d="m191 342.8c-.6 0-1.1-.2-1.6-.6l-18.7-17.4c-.9-.9-1-2.4-.1-3.3s2.4-1 3.3-.1l18.7 17.4c.9.9 1 2.4.1 3.3-.4.4-1 .7-1.7.7z" fill="#12426d"/><path d="m263.9 375.9c-2.9 0-5.3-2.4-5.3-5.3s2.4-5.3 5.3-5.3 5.3 2.4 5.3 5.3-2.4 5.3-5.3 5.3zm0-7.8c-1.3 0-2.4 1.1-2.4 2.4s1.1 2.4 2.4 2.4 2.4-1.1 2.4-2.4-1.1-2.4-2.4-2.4z" fill="#12426d"/><path d="m322.3 637.3.2-10.9 4.5-10.1 9.8-7 12.5-1.9 9.8 1.3 10.1 5.1 9.1 9.7 2.3 13.8z" fill="#0e9ad0"/><path d="m321.3 637.3s-.2-8.1 0-8.1 56.6 0 56.6 0l1.7 8.1z" fill="#6bceec"/><path d="m349.3 500.7 5.8 24.9 1.4 28.4-6 37.1-4.1 16.3 10.1-.4 12.7 6.8 12.4 15.4 5-21.8-.4-62.9.9-18.9-7.7-3.3-17.2-7.5-9.3-9.1z" fill="#69bc87"/><path d="m346.4 607.4 4.1-16.3s21.6-8.1 33.9 19.1l-2.9 19-9.7-12.9-7.6-6.7-12.7-2.2z" fill="#4b7d5a"/><path d="m346.6 607.4s10.5.2 11.9 22.4h22.7s-2.3-23.4-34.6-22.4z" fill="#0483a6"/><path d="m355.9 629.8.6 7.5h-35.4l-.3-7.5z" fill="#9fdcf1"/><path d="m371.9 519s8.5 36.9 0 75.3l9.3 7.8 3.2 8.1 2.2-26.5 1-34.9-.5-23.2-7.7-3.3z" fill="#57a170"/><path d="m322.3 639.7c-1.1 0-2.1-.8-2.3-1.9-.1-.6-2.5-13.6 5.5-23.3 5.4-6.5 14.1-9.8 25.8-9.8.3 0 28.3.4 31.7 32.5.1 1.3-.8 2.4-2.1 2.6-1.3.1-2.4-.8-2.6-2.1-3-27.8-26.1-28.3-27-28.3-10.3 0-17.8 2.7-22.2 8.1-6.6 8-4.5 19.3-4.5 19.4.2 1.3-.6 2.5-1.8 2.7-.2 0-.4.1-.5.1z" fill="#12426d"/><path d="m346.8 608.4c-.2 0-.4 0-.7-.1-1.2-.4-1.9-1.7-1.6-2.9 17.4-59.2 2.7-103.5 2.6-104-.4-1.2.2-2.5 1.5-3 1.2-.4 2.5.2 3 1.5.6 1.9 15.3 46.2-2.5 106.8-.4 1-1.3 1.7-2.3 1.7z" fill="#12426d"/><path d="m380.6 636.4c-.2 0-.3 0-.5 0-1.3-.3-2.1-1.5-1.8-2.8 10.5-51.4 4.9-107.2 4.8-107.7-.1-1.3.8-2.4 2.1-2.6 1.3-.1 2.4.8 2.6 2.1.1.6 5.8 57.1-4.9 109.1-.2 1.2-1.2 1.9-2.3 1.9z" fill="#12426d"/><path d="m383.8 611.7c-.6 0-1.1-.3-1.4-.9-10.9-25.6-30.7-18.6-31.5-18.3s-1.6-.1-1.9-.9.1-1.6.9-1.9c.2-.1 23.3-8.2 35.2 19.9.3.7 0 1.6-.8 1.9-.1.1-.3.2-.5.2z" fill="#12426d"/><path d="m379.4 630.7h-57.9c-.8 0-1.5-.7-1.5-1.5s.7-1.5 1.5-1.5h57.9c.8 0 1.5.7 1.5 1.5s-.7 1.5-1.5 1.5z" fill="#12426d"/><path d="m418 526.9 8.2 19.6 9 29.7 7.9 31.2h13.3l11.5 4.5 8.4 8.4-1.6-28.7-11.6-40.3-14.9-43.3-11-21.9s-40 38.6-88 14.5c.1.1 23.1 35.3 68.8 26.3z" fill="#69bc87"/><path d="m443.2 607.4-2.7-14s23.6-6.5 33.8 6.7l2.1 20.2c-.1 0-11.5-21.2-33.2-12.9z" fill="#4b7d5a"/><path d="m423.6 637.3-.4-10.9 4.8-9.8 6.1-5.4 12.4-3.8h9.9l11.5 4.5 8.4 8.4 4.8 12 .8 5z" fill="#0e9ad0"/><path d="m423.6 637.3-.3-7.5h57.8l.8 7.5z" fill="#6bceec"/><path d="m446.5 607.4s10.5.2 11.9 22.4h22.7s-2.2-23.4-34.6-22.4z" fill="#0483a6"/><path d="m458.4 629.8.6 7.5h-35.4l-.3-7.5z" fill="#9fdcf1"/><path d="m423.2 495.2s23 29.9 35.8 96.4l9.9 4.4 5.3 4.1s-12.9-74.9-37-113.9z" fill="#57a170"/><path d="m443.1 609.7c-1.1 0-2-.7-2.3-1.8-13.1-55.1-21.6-73.8-24.1-78.4-23.2 4.7-34.4-2.4-37-4.3-25.4-4.9-35.2-28.1-35.6-29.1-.5-1.2.1-2.6 1.3-3 1.2-.5 2.6.1 3 1.3.1.3 9.5 22.2 32.8 26.4l.7.1.5.4c.1.1 10.3 8.8 35.1 3.3l1.5-.3.9 1.3c.4.5 9.6 14.1 25.6 81.4.3 1.3-.5 2.5-1.7 2.8-.3-.1-.5-.1-.7-.1z" fill="#12426d"/><path d="m481.9 639.7c-1.2 0-2.2-.9-2.3-2.1-3-28-26.1-28.3-27-28.3-10.3 0-17.7 2.7-22.2 8.1-6.6 8-4.5 19.4-4.5 19.5.2 1.3-.6 2.5-1.9 2.7s-2.5-.6-2.7-1.8c-.1-.6-2.5-13.6 5.5-23.3 5.4-6.5 14.1-9.8 25.8-9.8.3 0 28.3.4 31.7 32.5.1 1.3-.8 2.4-2.1 2.6-.1-.1-.2-.1-.3-.1z" fill="#12426d"/><path d="m476.3 622.6c-1.3 0-2.3-1-2.3-2.3-1.1-56.3-38.4-132.4-38.8-133.2-.6-1.2-.1-2.6 1.1-3.1 1.2-.6 2.6-.1 3.1 1.1.4.8 38.2 77.8 39.3 135.1-.1 1.3-1.1 2.4-2.4 2.4z" fill="#12426d"/><path d="m474.6 602c-.4 0-.7-.1-1-.4-14.1-13.7-33.1-6.6-33.3-6.5-.8.3-1.6-.1-1.9-.8-.3-.8.1-1.6.8-1.9.2-.1 20.9-7.9 36.4 7.1.6.6.6 1.5 0 2.1-.2.2-.6.4-1 .4z" fill="#12426d"/><path d="m481.2 630.7h-57.9c-.8 0-1.5-.7-1.5-1.5s.7-1.5 1.5-1.5h57.9c.8 0 1.5.7 1.5 1.5s-.7 1.5-1.5 1.5z" fill="#12426d"/><path d="m443.8 512.7c-15 0-24.7-14.6-25.2-15.3-.4-.7-.3-1.6.4-2s1.6-.3 2 .4c.1.2 11.2 16.7 26.8 13.5.8-.2 1.6.4 1.7 1.2.2.8-.4 1.6-1.2 1.7-1.4.3-2.9.5-4.5.5z" fill="#12426d"/><path d="m270.7 488.9-6.8-24.7-6.3-6.7-4.8-1.8-8 3.1-6.6 10.1-9.5 2.1-7.6 1.8-1.5 5.6 8 10.2 13.2 3.9 12 2.7z" fill="#fdd9af"/><path d="m243.9 476.9c-.1 0-.1 0-.2 0-4.5-.1-7.4-4.1-7.8-4.6-.7-1.1-.5-2.5.6-3.3 1.1-.7 2.5-.5 3.2.6.5.7 2.2 2.6 4 2.6 1.3 0 2.6-.9 3.9-2.7.8-1 2.2-1.2 3.3-.4 1 .8 1.2 2.2.4 3.3-2.1 3-4.6 4.5-7.4 4.5z" fill="#12426d"/><path d="m343.9 397.7-9 5.2-19.9 25.7-17 20.9-19.6 11.6-14.5 3.1 6.8 24.7 10.3.2 20.5-3.8 17.6-9 14.4-15.2 3.7-5.4v-15.2l4.8-27.7 4.3-9.9 2.4-5.6z" fill="#588ba8"/><path d="m278.4 461.1-14.5 3.1 6.8 24.7 15.7.2z" fill="#0e9ad0"/><path d="m282.4 480.2s36.8-3.9 54.8-45.8v14.9 6.4s-5.2 30-50.8 33.4z" fill="#41708a"/><path d="m281 465.5s41.1-13.7 62.3-56.6l5.3-11.6s-14.8-2.5-31.8 28.2l-10 17.7-11.7 8.7-16.9 9.3z" fill="#6ea6bf"/><path d="m276.7 491.4c-2 0-4.1-.1-6.2-.2l-1.7-.1-8-29.2h3c.3 0 30.2-.8 49.2-34.3 20.2-35.8 34.7-32.9 36.3-32.4 1.2.4 2 1.6 1.6 2.9-.3 1.2-1.6 2-2.9 1.6-.1 0-12.6-2.3-31 30.2-16.9 30-41.7 35.5-50.2 36.5l5.6 20.4c46.3 2.1 62-29.9 62.2-30.2.6-1.2 1.9-1.7 3.1-1.1s1.7 1.9 1.1 3.1c-.2.4-4.4 9.2-15 17.7-8.9 7-24.1 15.1-47.1 15.1z" fill="#12426d"/><path d="m248.6 496.1c-16.7 0-26.9-9.3-31-16.6-1.7-3-1-5.2-.2-6.5 3-4.6 13.2-4.8 18.5-4.5.5-2.1 1.8-5.4 4.8-9 3.9-4.5 8-6.6 12.4-6.1 7.7.8 12.6 9.3 12.8 9.6.6 1.1.2 2.5-.9 3.2-1.1.6-2.5.2-3.2-.9 0-.1-4-6.8-9.2-7.3-2.7-.3-5.5 1.3-8.4 4.5-3.9 4.6-4.1 8.3-4.1 8.4l-.1 2.5-2.5-.2c-6.8-.6-15.1.2-16.4 2.2-.2.3-.1.9.3 1.7 4.9 8.9 20.6 20.9 48.1 9.5 1.2-.5 2.6.1 3.1 1.3s-.1 2.6-1.3 3.1c-8.4 3.7-16.1 5.1-22.7 5.1z" fill="#12426d"/><path d="m286.4 490.1c-.6 0-1.2-.4-1.4-1.1l-8-27.5c-.2-.8.2-1.6 1-1.8s1.6.2 1.8 1l8 27.5c.2.8-.2 1.6-1 1.8-.2 0-.3.1-.4.1z" fill="#12426d"/><path d="m517.4 493.8-10.2 1.2-7 6.8-.6 11 9.4 9.5v104.1l-9.4 1.6-5.1 4.3.9 4.6h35v-4.6l-3-5.9h-10v-103l8.5-9 1.5-10.2z" fill="#ffd56c"/><path d="m500.2 501.8s17.1-4.7 22 19.9l3.6-7.3 1.5-10.1-5.1-9.2-7.7-1.2-7.4 1.2z" fill="#e2b34a"/><path d="m517.4 626.4s5 3.2 4.8 10.9l8.1-.4c.1 0 1.9-9.8-12.9-10.5z" fill="#e2b34a"/><path d="m509 626.4s-5.7 1.9-3.1 10.9l-10.5-.4s-4.7-10.5 13.6-10.5z" fill="#ffe8bc"/><path d="m509 522.3v15.5h8.4v-14.4z" fill="#e2b34a"/><path d="m481.6 531.4c-36.9 0-76.2-14.1-78.3-14.8-1.2-.4-1.8-1.8-1.4-3s1.8-1.8 3-1.4c.6.2 63.3 22.7 103.5 11.3 1.2-.4 2.5.4 2.9 1.6s-.4 2.5-1.6 2.9c-8.7 2.4-18.3 3.4-28.1 3.4z" fill="#12426d"/><path d="m509 627.4c-1.3 0-2.3-1-2.3-2.3v-102.8c0-1.3 1-2.3 2.3-2.3s2.3 1 2.3 2.3v102.7c.1 1.3-1 2.4-2.3 2.4z" fill="#12426d"/><path d="m517.4 627.4c-1.3 0-2.3-1-2.3-2.3v-102.8c0-1.3 1-2.3 2.3-2.3s2.3 1 2.3 2.3v102.7c.1 1.3-1 2.4-2.3 2.4z" fill="#12426d"/><path d="m513.1 524.7c-9.2 0-16.6-7.5-16.6-16.6s7.5-16.6 16.6-16.6c9.2 0 16.6 7.5 16.6 16.6s-7.4 16.6-16.6 16.6zm0-28.6c-6.6 0-12 5.4-12 12s5.4 12 12 12 12-5.4 12-12-5.4-12-12-12z" fill="#12426d"/><path d="m495.4 639.2c-.7 0-1.4-.3-1.9-1-1-1.4-2.4-4.7-.8-7.8 2.2-4.3 8.7-6.4 20-6.4 1.3 0 2.3 1 2.3 2.3s-1 2.3-2.3 2.3c-12.8 0-15.3 2.9-15.8 3.8-.7 1.4.4 3 .4 3 .7 1.1.5 2.5-.6 3.2-.4.5-.9.6-1.3.6z" fill="#12426d"/><path d="m530.4 639.2c-.5 0-1-.1-1.4-.4-1-.8-1.3-2.2-.5-3.2 0-.1 1.1-1.7.4-3-.5-.9-3-3.8-15.8-3.8-1.3 0-2.3-1-2.3-2.3s1-2.3 2.3-2.3c11.3 0 17.8 2.1 20 6.4 1.6 3.1.3 6.4-.8 7.8-.5.5-1.2.8-1.9.8z" fill="#12426d"/><path d="m517.4 538.7h-8.4c-.8 0-1.5-.7-1.5-1.5s.7-1.5 1.5-1.5h8.4c.8 0 1.5.7 1.5 1.5s-.6 1.5-1.5 1.5z" fill="#12426d"/><path d="m522.3 510.5c-.7 0-1.3-.4-1.4-1.1-1.8-6.9-8.5-8.6-8.5-8.6-.8-.2-1.3-1-1.1-1.8s1-1.3 1.8-1.1c.3.1 8.5 2.1 10.7 10.7.2.8-.3 1.6-1.1 1.8-.2.1-.3.1-.4.1z" fill="#12426d"/><path d="m348.7 397.3-7.7 17.8-3.8 19.3v21.3l3.8 24 8.3 21 12.8 4.9 9.7 2.7 24-2.2 27.4-10.9 14.1-9.1.7-20.6-14.8-36.5-13-24.9-9.7-11.6-11.1-6.1-13.1 13.1-7.1 5.5-8.4 1.7-8-3.2z" fill="#0e9ad0"/><path d="m389.4 386.4s-15.1 64.8 16.8 117.8l17-9 14.1-9-.4-16.1-13.7-41.1-15.7-28.1-9.3-11z" fill="#068cb2"/><path d="m379 510.7c-4.1 0-8.1-.4-12-1.3-15.3-3.4-22.3-12.4-22.6-12.8l-.2-.3-5.4-16.1c-14.1-60.7 10.1-85.2 11.1-86.2.9-.9 2.4-.9 3.3 0s.9 2.4 0 3.3c-.2.2-23.3 23.9-9.9 81.7l5.1 15c1.2 1.4 7.6 8.3 20 10.9 12.8 2.7 34.9 1.4 67.1-20.4.6-1.5 2.6-10.7-11.5-47.3-20-51.9-36.7-48.6-36.8-48.6-1.2.4-2.5-.3-2.9-1.6s.3-2.5 1.6-2.9c.6-.2 5.9-1.5 13.9 4.6 10 7.7 19.6 23.4 28.6 46.7 16.2 42.1 12.2 50.6 10.5 52.2l-.3.3c-22.2 15.2-42.2 22.8-59.6 22.8z" fill="#12426d"/><path d="m375 510.5c-.9 0-1.8-.5-2.1-1.4-20.4-47.1-13.1-102.2-13-102.7.2-1.3 1.4-2.2 2.6-2 1.3.2 2.2 1.4 2 2.6-.1.5-7.2 54.3 12.7 100.2.5 1.2 0 2.6-1.2 3.1-.4.2-.7.2-1 .2z" fill="#12426d"/><circle cx="373.7" cy="423.1" fill="#12426d" r="4.5"/><circle cx="373.7" cy="445" fill="#12426d" r="4.5"/><circle cx="376.3" cy="470" fill="#12426d" r="4.5"/><path d="m396.8 400.5 3.9 15.1 5.8 15.5 9.9 12 5.6 5.7-3.8 4.4-5.9 13.7-5.8 13-10.4 13.9 6.5 3.2 5.6 7.2.8 4.1 9.4-4.4 21.9-15.7 8.1-15.4 3.2-13-3-20.2-12.1-24.9-14.5-17.5-12.3-8.7-7.1-2.2-5.8 5z" fill="#588ba8"/><path d="m396.1 493.8-7-1.3-8.9 4.6-3.7 7.1-2.7 7 2.7 6.7 4.9 4.4 7.7 3.3 8.7-2.2 8.4-9 2.8-6.1-6.4-11.3z" fill="#fdd9af"/><path d="m418.4 492.5s19.1-9.8 22.7-36.8c0 0-5.9-37.4-38.5-69.4 0 0 39.8 15.4 49 67.6 0 0 2 30.2-28.6 46.7z" fill="#41708a"/><path d="m412.3 486.1s11.6-19.9 13-36.1l-7.1 3.1-4.4 10.1-11.2 21.9z" fill="#6ea6bf"/><path d="m405.7 485.8-10.1 8 6.5 3.2 6.4 11.3 9.4-4.4 4.5-3.2-7.6-11.6z" fill="#0e9ad0"/><path d="m389.9 528c-6.1 0-11.6-3.2-14.7-6.7-6.4-7.3-3.5-12.9.2-20.1.6-1.1 1.2-2.3 1.8-3.5 4.2-8.7 14.9-8.2 19.9-6.8 1.2.4 1.9 1.7 1.6 2.9-.4 1.2-1.7 1.9-2.9 1.6-.5-.1-10.8-3-14.4 4.3-.6 1.3-1.2 2.5-1.8 3.6-3.6 7-5.1 9.9-.8 14.9 2.7 3.1 7.9 5.9 13.4 4.9 6.1-1.1 11.2-6.5 14.7-15.6.5-1.2 1.8-1.8 3-1.3s1.8 1.8 1.3 3c-5.2 13.6-12.8 17.6-18.2 18.5-1.1.2-2.1.3-3.1.3z" fill="#12426d"/><path d="m421.9 503.3c-.7 0-1.3-.5-1.4-1.2-1.1-6-3.5-10.3-7.1-12.6-4.9-3.2-10.4-1.9-10.4-1.9-.8.2-1.6-.3-1.8-1.1s.3-1.6 1.1-1.8c.3-.1 6.8-1.6 12.8 2.3 4.3 2.8 7.2 7.7 8.4 14.6.1.8-.4 1.6-1.2 1.7-.2 0-.3 0-.4 0z" fill="#12426d"/><path d="m402.4 386.3s.6 12.6 22.7 63.7c-.1 0-41.1-41-22.7-63.7z" fill="#6ea6bf"/><path d="m406.8 511.7-.1-3.3c0-.4-.4-9.8-9.8-10.8-1.4-.1-2.5-1.1-3-2.4-.4-1.3-.1-2.8.9-3.7 3-2.8 8.6-9.1 13-19.6 1.9-4.6 3-8 3.9-10.7 1.9-5.7 2.9-8.7 7.3-11.8-5.7-5.4-19.8-21.2-24.6-48.7v-.3c0-1.1-.2-10.8 5.4-14.4 2.9-1.8 6.6-1.7 10.9.5 13.8 7 36.9 31.7 42.6 62.5 5.7 31-22.9 53.8-43.5 61.6zm-7.2-18.4c7.1 1.7 10.2 7.2 11.3 11.7 18.2-7.9 42.7-28.7 37.8-55.3-5.4-29.2-27.1-52.6-40.1-59.2-2.7-1.4-4.8-1.7-6.3-.8-2.8 1.8-3.3 7.9-3.3 10.2 5.6 32.1 25.1 47.7 25.3 47.8l2.7 2.2-3 1.7c-5.2 2.9-5.7 4.5-7.9 11-.9 2.8-2.1 6.3-4.1 11-3.8 9.7-8.9 16.2-12.4 19.7z" fill="#12426d"/><path d="m348.7 379.6 4.1 21.2s12.3 21.4 33.7-14.4l-2.4-13.9z" fill="#fdd9af"/><path d="m348.7 386.9s13.6 13.9 36.5-8l-1.1-6.4-35.5 7.1v7.3z" fill="#fbbb9a"/><path d="m362.6 409.1c-.1 0-.3 0-.4 0-7.5-.2-11.3-6.8-11.4-7.1l-.2-.3-4.2-21.6c-.2-1.3.6-2.5 1.8-2.7 1.3-.2 2.5.6 2.7 1.8l4.1 20.8c.7 1 3.1 4.3 7.4 4.4s11.5-3 21.7-18.5l-2.2-13c-.2-1.3.6-2.5 1.9-2.7s2.5.6 2.7 1.9l2.5 14.8-.5.8c-9.2 14.2-17.9 21.4-25.9 21.4z" fill="#12426d"/><path d="m384.7 372.5 28.6-5.8 11.8-4.5 9.5-11 3.3-21.3-3.3-16.1 8.4-4.8 4-10.1-1.4-6.7-8-10.3-8.6 4.1-1.6-8.2-8.9 10.3-10.3 6.2-24.5-7.9-34.8-12.7-34-4.6-27.7 2.1-25 6.7-5.1 13.3v14.1l6.2 22.6 2.2 10 2.6 11.3 1.1 4.7 2.2 7.6 3.5 8.3 12 16.1 10.7 2.6 24.3-3.4 27.3-5.5" fill="#fdd9af"/><path d="m258.2 311-15-7.7-4.8-14.1 6.5-16.8 4.3-5.3-3.6-12.9.2-13.4 5.7-13.1 12.6-10.8 13.2-5.1 8.3-13.9 7.6-7.7 15-6.2 13.4-1.5 16.4 7.5 11.6-6.1 14.3-2.2 8.8 2.1 9.3 6.9 9.9 16.8 20.4 4.1 12.2 10.1 6.1 12.9 1.3 20.3 12.5 6.6 6.7 14-2.5 19.1-8.9-10.1-10.8-.7-2.2-9.2-8.3 13.5-10.2 6.2-24.5-7.9-31.6-12.7-30.3-3.7-32 1-27.6 6.9-3.5 9.1z" fill="#626158"/><path d="m246.7 258.2s1.1-32.6 30.6-39.3l1.5-7.6-11.4 4-12.5 8.4-4.4 6.1-3.2 5.4-3.8 10.6z" fill="#7f7e79"/><path d="m279.5 226.1s6.6-44.8 56.4-37l-12-5.5-13.2.1-17.5 6.5-9.4 10.2-4.9 10.9z" fill="#7f7e79"/><path d="m338 190s36.6-13.2 51.7 18.5l-3.3-12.2-11.4-12.4-16.6-2.5-8.9 2.5z" fill="#7f7e79"/><path d="m391.9 207.5s33 8.4 39.9 47.5l1.6-16.4-10.1-21.2-15-7.2z" fill="#7f7e79"/><path d="m439.7 284.5s10.5-5-7.8-29.6c0 0 23.4 7.1 17.1 37.1z" fill="#7f7e79"/><path d="m288.9 243.2s32.5-20.6 54.2-15.6l-16.9-7.3-16.6 4.5-14.3 10.3z" fill="#7f7e79"/><path d="m343.1 227.7s-9.2-14.2 13.9-20.7l-12-.2-8.9 6.6-5.4 7z" fill="#7f7e79"/><path d="m262.2 277.9s43.6-35.6 116-3.5c0 0 30 19.9 46.8-3.6l2.4 7.1-11.2 12.6-8 3.8-20.1-5.9-25.8-10.4-21.8-6.1-33.4-1.3z" fill="#56504c"/><path d="m286.9 382.6 124.9-26.3s25.8-7.1 24.5-34.2c0 0 9.2 31.1-11.2 40.1l-40.4 10.3-83.7 17.8-8.8-3.9z" fill="#fbbb9a"/><path d="m281.5 310.9s17.2-18.7 34-25.9c0 .1-31.4-5.9-34 25.9z" fill="#fbbb9a"/><path d="m260.6 312.8s2.2-24.7 12.5-27.7c0 0 48.1-20.4 112.4 4.5 0 0-53.2-37.1-123.2-11.7-.1 0-11.3 17.7-1.7 34.9z" fill="#fbbb9a"/><path d="m392.9 290.5s28.4 18.9 38.7 8.3l-4.8-24.3-5.9 10.3-12.7 9.4z" fill="#fbbb9a"/><path d="m281.5 310.9s-13.2-38.2 34-25.9c0 .1-26.7-4.7-34 25.9z" fill="#fbeccc"/><ellipse cx="385.7" cy="319.3" fill="#fbeccc" rx="10.7" ry="4.8" transform="matrix(.9791 -.2036 .2036 .9791 -56.9333 85.225)"/><ellipse cx="310.7" cy="335.3" fill="#fbeccc" rx="10.7" ry="4.8" transform="matrix(.9791 -.2036 .2036 .9791 -61.7607 70.2787)"/><path d="m342.3 333.2s-2.4-11.8 1.3-27.4l8.4 32z" fill="#fbeccc"/><g fill="#12426d"><path d="m302.2 390.9c-2.1 0-4.1-.2-6.2-.4l-1.3-.1c-20.6-1.7-25.4-25.5-25.6-26.6l-8.1-35.4-5.4-27c-2-9.9-.5-17.8 4.8-25 .8-1 2.2-1.3 3.3-.5 1 .8 1.3 2.2.5 3.3-4.5 6.1-5.7 12.7-4 21.3l5.4 27 8.1 35.4c.1.3 4.4 21.5 21.5 22.9l1.3.1c3.6.3 6.9.6 10.4-.1l106.1-21.3c15.7-3.1 25.8-18.4 22.7-34.1l-12.7-62.6c-3.2-15.7-18.5-25.8-34.1-22.7-1.3.3-2.5-.6-2.7-1.8-.3-1.3.6-2.5 1.8-2.7 18.2-3.7 35.9 8.2 39.6 26.3l12.6 62.6c3.7 18.2-8.2 35.9-26.3 39.6l-106.1 21.3c-2 .3-3.8.5-5.6.5z"/><path d="m434.6 316.1c-1.1 0-2.1-.8-2.3-1.9-.3-1.3.6-2.5 1.8-2.7 3.4-.7 6.4-2.7 8.3-5.6s2.6-6.4 1.9-9.9c-.7-3.4-2.7-6.4-5.6-8.3s-6.4-2.6-9.9-1.9c-1.3.3-2.5-.6-2.7-1.8-.3-1.3.6-2.5 1.8-2.7 4.7-.9 9.4 0 13.4 2.6s6.7 6.6 7.6 11.3 0 9.4-2.6 13.4-6.6 6.7-11.3 7.6c-.1-.1-.3-.1-.4-.1z"/><path d="m406.7 296.7c-6 0-12.8-3.1-21.4-7-8.8-4-19.7-8.9-34.4-13-47.8-13.4-87.4 3.2-87.8 3.4-1.2.5-2.6 0-3.1-1.2s0-2.6 1.2-3.1c1.7-.7 41.5-17.4 90.9-3.6 15 4.2 26.2 9.2 35.1 13.3 9.5 4.3 16.4 7.4 21.7 6.4 5.2-1.1 9.9-6.6 15.6-18.4.6-1.2 2-1.7 3.1-1.1 1.2.6 1.7 2 1.1 3.1-7.6 15.8-14.1 21.2-22 21.2z"/><path d="m446.7 297.9c-.3 0-.7-.1-1-.2-1.2-.6-1.6-2-1.1-3.1 4.1-8.2 4.9-15.6 2.4-22.1-4.1-10.6-15.8-15.3-16-15.3l-1.6-.6.2-1.8c1.4-14.9-1.7-26.4-9.1-34.1-11-11.5-28.2-10.8-28.4-10.8l-1.7.1-.6-1.6c-5-13.1-12.1-21-21.1-23.5-14.3-4.1-29.1 7-29.2 7.1l-1.5 1-1.4-1.1c-15.6-11.9-32.1-4.2-32.3-4.2l-.2.1c-28.7 10.9-22.8 36.3-22.5 37.3.3 1.2-.4 2.5-1.7 2.8-1.2.3-2.5-.4-2.8-1.7-.1-.3-7.3-30.4 25.3-42.8 1.6-.7 18.7-8.1 35.6 3.7 4.4-2.9 17.9-10.8 31.9-6.9 10.1 2.8 18 11.2 23.6 24.8 5 .1 19.8 1.3 30.3 12.2 8.1 8.4 11.6 20.6 10.5 36.1 3.8 1.8 13.1 7.2 17 17.2 3 7.7 2.2 16.4-2.5 25.9-.4 1-1.3 1.5-2.1 1.5z"/><path d="m288.7 245.1c-.4 0-.9-.1-1.3-.4-1.1-.7-1.4-2.1-.7-3.2.2-.3 22.1-33.4 56.5-17.7 1.2.5 1.7 1.9 1.2 3.1s-1.9 1.7-3.1 1.2c-12.9-5.9-25.3-5-36.9 2.6-8.8 5.7-13.7 13.3-13.7 13.4-.5.7-1.2 1-2 1z"/><path d="m331.3 224.9c-.2 0-.4 0-.6-.1-1.2-.4-2-1.6-1.6-2.9 2.3-8.1 11.2-22 28.6-17.2 1.2.3 2 1.6 1.6 2.9-.3 1.2-1.6 2-2.9 1.6-17.3-4.9-22.7 13.2-22.9 13.9-.3 1.1-1.2 1.8-2.2 1.8z"/><path d="m374.9 269.3c-.3 0-.5-.1-.8-.2-42.2-22.1-77.3-9.7-77.6-9.6-.9.3-1.9-.1-2.2-1s.1-1.9 1-2.2c1.5-.5 36.9-13 80.5 9.8.9.4 1.2 1.5.7 2.3-.4.6-1 .9-1.6.9z"/><path d="m289.9 214.1c-.3 0-.5-.1-.8-.2-.9-.4-1.2-1.5-.8-2.3.1-.3 12.5-25 39.6-18.2.9.2 1.5 1.2 1.3 2.1s-1.2 1.5-2.1 1.3c-24.3-6-35.2 15.5-35.6 16.4-.3.5-.9.9-1.6.9z"/><path d="m424 244.8c-.8 0-1.5-.5-1.7-1.3-6.2-23.3-24.3-23-25-23-1 0-1.8-.7-1.8-1.7s.7-1.8 1.7-1.8c.2 0 21.6-.5 28.5 25.6.2.9-.3 1.9-1.2 2.1-.2.1-.3.1-.5.1z"/><path d="m439.5 296.8c-.6 0-1.1-.3-1.4-.8-1-1.4-2.1-2.2-3.2-2.3-1.8-.2-3.4 1.3-3.4 1.3-.7.7-1.8.6-2.5-.1s-.6-1.8.1-2.4c.1-.1 2.7-2.6 6.1-2.3 2.2.2 4.1 1.5 5.7 3.8.5.8.3 1.9-.4 2.4-.3.3-.6.4-1 .4z"/><path d="m386.2 275.7c-.3 0-.6-.1-.9-.2l-4.9-2.9c-.8-.5-1.1-1.6-.6-2.4s1.6-1.1 2.4-.6l4.9 2.9c.8.5 1.1 1.6.6 2.4-.4.5-1 .8-1.5.8z"/><path d="m391.4 220.2h-5.4c-1 0-1.7-.8-1.7-1.7 0-1 .7-1.7 1.7-1.7h5.4c1 0 1.7.8 1.7 1.7s-.8 1.7-1.7 1.7z"/><path d="m258.2 313.3c-.3 0-.7-.1-1-.2-12.3-5.7-19.2-13-20.6-21.7-1.8-11.4 6.6-21.4 9.8-24.8-5.3-12.5-5.6-23.7-1-33.3 8.5-17.6 30.3-23.5 31.3-23.7 1.2-.3 2.5.4 2.8 1.7.3 1.2-.4 2.5-1.7 2.8-.2.1-20.7 5.5-28.2 21.2-4.2 8.7-3.6 19.1 1.7 30.8l.7 1.5-1.2 1.1c-.1.1-11.3 10.6-9.5 21.9 1.1 7.1 7.2 13.2 17.9 18.2 1.2.5 1.7 1.9 1.1 3.1-.4.9-1.2 1.4-2.1 1.4z"/><path d="m254.4 260.4c-.7 0-1.4-.5-1.7-1.2-.1-.2-7.2-24.5 15.7-34.7.9-.4 1.9 0 2.3.9s0 1.9-.9 2.3c-20.2 9-14.1 29.6-13.8 30.5s-.2 1.9-1.2 2.2c-.1-.1-.3 0-.4 0z"/><path d="m350.1 340.3c-1.9 0-3.7-.4-5.3-1.2-2.5-1.2-4.2-3.4-4.7-5.8-.3-1.3.6-2.5 1.8-2.7 1.3-.3 2.5.6 2.7 1.8.3 1.4 1.5 2.2 2.2 2.6 1.4.7 3.1.9 4.8.5 1.7-.3 3.3-1.2 4.3-2.4.5-.6 1.3-1.8 1-3.2-.3-1.3.6-2.5 1.8-2.7 1.3-.3 2.5.6 2.7 1.8.5 2.5-.3 5.1-2 7.2-1.7 2-4.1 3.4-6.9 3.9-.6.1-1.5.2-2.4.2z"/><path d="m346.9 361.9c-16.2 0-28.3-7.6-28.5-7.8-1.1-.7-1.4-2.1-.7-3.2s2.1-1.4 3.2-.7c1.4.9 35.6 22.2 64.3-13.1.8-1 2.3-1.2 3.3-.3 1 .8 1.1 2.3.3 3.3-13.9 17-29.1 21.8-41.9 21.8z"/><path d="m281.5 313.8c-.1 0-.1 0-.2 0-1.5-.1-2.7-1.4-2.6-3 0-.6 1-14 11.2-22.4 6.5-5.4 15.3-7.4 25.9-6.1 1.5.2 2.6 1.6 2.4 3.1s-1.6 2.6-3.1 2.4c-9.1-1.2-16.3.5-21.7 4.9-8.4 6.9-9.2 18.4-9.2 18.5 0 1.4-1.2 2.6-2.7 2.6z"/><circle cx="310.6" cy="312.6" r="6.7"/><circle cx="376.1" cy="302.5" r="6.7"/><path d="m117.5 639.7h-63.3c-1.3 0-2.3-1-2.3-2.3s1-2.3 2.3-2.3h63.3c1.3 0 2.3 1 2.3 2.3s-1 2.3-2.3 2.3z"/><path d="m218.9 639.7h-92.4c-1.3 0-2.3-1-2.3-2.3s1-2.3 2.3-2.3h92.4c1.3 0 2.3 1 2.3 2.3s-1 2.3-2.3 2.3z"/><path d="m237.2 639.7h-11.2c-1.3 0-2.3-1-2.3-2.3s1-2.3 2.3-2.3h11.2c1.3 0 2.3 1 2.3 2.3s-1 2.3-2.3 2.3z"/><path d="m405 639.7h-159.6c-1.3 0-2.3-1-2.3-2.3s1-2.3 2.3-2.3h159.6c1.3 0 2.3 1 2.3 2.3s-1 2.3-2.3 2.3z"/><path d="m554.9 639.7h-138.3c-1.3 0-2.3-1-2.3-2.3s1-2.3 2.3-2.3h138.3c1.3 0 2.3 1 2.3 2.3s-1.1 2.3-2.3 2.3z"/></g></svg>